<svg xmlns="http://www.w3.org/2000/svg" version="1.1" xmlns:xlink="http://www.w3.org/1999/xlink" xmlns:svgjs="http://svgjs.dev/svgjs" width="1500" height="1500" viewBox="0 0 1500 1500"><rect width="1500" height="1500" fill="#000000"></rect><g transform="matrix(0.6666666666666666,0,0,0.6666666666666666,249.39393939393938,636.777980797974)"><svg viewBox="0 0 396 89" data-background-color="#ffffff" preserveAspectRatio="xMidYMid meet" height="337" width="1500" xmlns="http://www.w3.org/2000/svg" xmlns:xlink="http://www.w3.org/1999/xlink"><g id="tight-bounds" transform="matrix(1,0,0,1,0.2400000000000091,0.35204618240490504)"><svg viewBox="0 0 395.52 88.29590763519019" height="88.29590763519019" width="395.52"><g><svg viewBox="0 0 524.3279607669197 117.05100423347382" height="88.29590763519019" width="395.52"><g transform="matrix(1,0,0,1,128.80796076691973,16.177092480892547)"><svg viewBox="0 0 395.52 84.69681927168872" height="84.69681927168872" width="395.52"><g id="textblocktransform"><svg viewBox="0 0 395.52 84.69681927168872" height="84.69681927168872" width="395.52" id="textblock"><g><svg viewBox="0 0 395.52 49.79661639344262" height="49.79661639344262" width="395.52"><g transform="matrix(1,0,0,1,0,0)"><svg width="395.52" viewBox="4.5 -37 388.22 48" height="49.79661639344262" data-palette-color="#556970"><g class="wordmark-text-0" data-fill-palette-color="primary" id="text-0"><path d="M29.35-1.5L24.9 0.6 20.55-8.9Q18.9-12.45 16.4-13.95 13.9-15.45 10-15.45L10-15.45 9.25-15.45 9.25 0 4.5 0 4.5-34.9Q7.15-35.15 9.58-35.27 12-35.4 14.75-35.4L14.75-35.4Q21.15-35.4 24.38-32.8 27.6-30.2 27.6-26.1L27.6-26.1Q27.6-22.45 25.43-20.23 23.25-18 19.15-16.9L19.15-16.9Q20.5-16.3 21.55-15.48 22.6-14.65 23.58-13.28 24.55-11.9 25.55-9.7L25.55-9.7 29.35-1.5ZM9.25-31.2L9.25-19.45 14.75-19.45Q18.35-19.45 20.6-21.05 22.85-22.65 22.85-25.65L22.85-25.65Q22.85-28.15 20.75-29.78 18.65-31.4 14.75-31.4L14.75-31.4Q13.05-31.4 11.7-31.35 10.35-31.3 9.25-31.2L9.25-31.2ZM44.8 0.6L44.8 0.6Q41.55 0.6 38.9-1.05 36.25-2.7 34.67-5.73 33.1-8.75 33.1-12.85L33.1-12.85Q33.1-16.75 34.67-19.85 36.25-22.95 39.02-24.78 41.8-26.6 45.4-26.6L45.4-26.6Q47.65-26.6 49.47-25.83 51.3-25.05 52.65-23.9L52.65-23.9 52.65-26 56.75-26 56.75-6.3Q56.75-4.4 57.67-3.83 58.6-3.25 59.7-3.25L59.7-3.25 58.75 0.25Q53.95 0.25 52.95-3.65L52.95-3.65Q51.8-2.05 49.82-0.73 47.85 0.6 44.8 0.6ZM45.8-3.4L45.8-3.4Q47.7-3.4 49.4-4.33 51.1-5.25 52.25-6.65L52.25-6.65 52.25-20.6Q50.9-21.55 49.27-22.13 47.65-22.7 45.85-22.7L45.85-22.7Q43.45-22.7 41.62-21.48 39.8-20.25 38.75-18.07 37.7-15.9 37.7-13L37.7-13Q37.7-10.2 38.75-8.03 39.8-5.85 41.65-4.63 43.5-3.4 45.8-3.4ZM74.8 0.6L74.8 0.6Q71.05 0.6 68.87-1.88 66.7-4.35 66.7-8.95L66.7-8.95 66.7-21.15 62.2-21.15 62.2-25.05 66.8-25.05 67.75-33.25 71.2-33.25 71.2-25.05 78.4-25.05 78.4-21.15 71.2-21.15 71.2-8.6Q71.2-5.7 72.42-4.55 73.65-3.4 75.35-3.4L75.35-3.4Q76.6-3.4 77.72-3.8 78.85-4.2 79.8-4.75L79.8-4.75 81.05-1.15Q80.05-0.55 78.35 0.03 76.65 0.6 74.8 0.6ZM95.94 0.6L95.94 0.6Q90.34 0.6 87.07-2.98 83.79-6.55 83.79-13L83.79-13Q83.79-16.9 85.27-19.98 86.74-23.05 89.39-24.83 92.04-26.6 95.54-26.6L95.54-26.6Q99.29-26.6 101.77-24.98 104.24-23.35 105.49-20.6 106.74-17.85 106.74-14.55L106.74-14.55Q106.74-12.8 106.59-11.15L106.59-11.15 88.39-11.15Q88.84-7.5 90.94-5.45 93.04-3.4 96.49-3.4L96.49-3.4Q98.74-3.4 100.54-3.88 102.34-4.35 103.99-5.1L103.99-5.1 105.04-1.25Q103.24-0.45 100.99 0.08 98.74 0.6 95.94 0.6ZM88.34-14.8L88.34-14.8 102.59-14.8Q102.59-18.6 100.69-20.65 98.79-22.7 95.44-22.7L95.44-22.7Q92.54-22.7 90.64-20.68 88.74-18.65 88.34-14.8ZM124.74 0L119.99 0 119.99-30.8 109.24-30.8 109.24-35 135.49-35 135.49-30.8 124.74-30.8 124.74 0ZM144.49 0L139.99 0 139.99-37 144.49-37 144.49-21.85Q145.89-23.9 148.04-25.25 150.19-26.6 153.09-26.6L153.09-26.6Q157.49-26.6 159.66-23.95 161.84-21.3 161.84-16.95L161.84-16.95 161.84 0 157.34 0 157.34-16.45Q157.34-19.25 156.04-20.95 154.74-22.65 152.39-22.65L152.39-22.65Q150.09-22.65 148.01-21.03 145.94-19.4 144.49-17.2L144.49-17.2 144.49 0ZM179.99 0.6L179.99 0.6Q174.39 0.6 171.11-2.98 167.84-6.55 167.84-13L167.84-13Q167.84-16.9 169.31-19.98 170.78-23.05 173.44-24.83 176.09-26.6 179.59-26.6L179.59-26.6Q183.34-26.6 185.81-24.98 188.29-23.35 189.54-20.6 190.79-17.85 190.79-14.55L190.79-14.55Q190.79-12.8 190.64-11.15L190.64-11.15 172.44-11.15Q172.89-7.5 174.99-5.45 177.09-3.4 180.53-3.4L180.53-3.4Q182.78-3.4 184.59-3.88 186.39-4.35 188.04-5.1L188.04-5.1 189.09-1.25Q187.29-0.45 185.04 0.08 182.78 0.6 179.99 0.6ZM172.39-14.8L172.39-14.8 186.64-14.8Q186.64-18.6 184.74-20.65 182.84-22.7 179.49-22.7L179.49-22.7Q176.59-22.7 174.69-20.68 172.78-18.65 172.39-14.8ZM202.03 0L197.28 0 197.28-35 202.03-35 202.03-20.05 219.28-20.05 219.28-35 224.03-35 224.03 0 219.28 0 219.28-15.95 202.03-15.95 202.03 0ZM243.48 0.6L243.48 0.6Q239.78 0.6 236.83-1.13 233.88-2.85 232.21-5.93 230.53-9 230.53-13L230.53-13Q230.53-17.2 232.23-20.25 233.93-23.3 236.88-24.95 239.83-26.6 243.48-26.6L243.48-26.6Q247.13-26.6 250.06-24.95 252.98-23.3 254.71-20.28 256.43-17.25 256.43-13.1L256.43-13.1Q256.43-8.95 254.73-5.88 253.03-2.8 250.11-1.1 247.18 0.6 243.48 0.6ZM243.48-3.4L243.48-3.4Q247.43-3.4 249.63-6.08 251.83-8.75 251.83-13L251.83-13Q251.83-15.6 250.73-17.78 249.63-19.95 247.76-21.28 245.88-22.6 243.48-22.6L243.48-22.6Q239.53-22.6 237.33-20 235.13-17.4 235.13-13.1L235.13-13.1Q235.13-10.5 236.23-8.28 237.33-6.05 239.21-4.73 241.08-3.4 243.48-3.4ZM269.43 0.6L269.43 0.6Q266.48 0.6 264.1-0.15 261.73-0.9 260.18-2.1L260.18-2.1 262.08-5.85Q263.38-4.75 265.35-4.03 267.33-3.3 269.58-3.3L269.58-3.3Q272.38-3.3 273.8-4.23 275.23-5.15 275.23-6.6L275.23-6.6Q275.23-7.65 274.7-8.45 274.18-9.25 272.78-10.03 271.38-10.8 268.73-11.7L268.73-11.7Q265.08-12.95 263.25-14.68 261.43-16.4 261.43-19.45L261.43-19.45Q261.43-22.45 264.05-24.53 266.68-26.6 271.33-26.6L271.33-26.6Q273.83-26.6 275.78-26.08 277.73-25.55 279.28-24.75L279.28-24.75 278.03-21.05Q276.68-21.85 274.95-22.35 273.23-22.85 271.13-22.85L271.13-22.85Q268.53-22.85 267.18-21.8 265.83-20.75 265.83-19.5L265.83-19.5Q265.83-18.3 266.88-17.45 267.93-16.6 270.98-15.6L270.98-15.6Q275.93-13.95 277.88-11.95 279.83-9.95 279.83-6.95L279.83-6.95Q279.83-3.45 277-1.43 274.18 0.6 269.43 0.6ZM291.27 11L286.77 11 286.77-19.35Q286.77-21.05 285.95-21.78 285.13-22.5 283.82-22.5L283.82-22.5 284.77-26Q289.38-26 290.52-22.35L290.52-22.35Q291.02-23.1 292.15-24.1 293.27-25.1 294.95-25.85 296.63-26.6 298.77-26.6L298.77-26.6Q301.77-26.6 304.4-25.03 307.02-23.45 308.63-20.48 310.22-17.5 310.22-13.25L310.22-13.25Q310.22-9.1 308.63-5.98 307.02-2.85 304.45-1.13 301.88 0.6 298.88 0.6L298.88 0.6Q296.57 0.6 294.57-0.33 292.57-1.25 291.27-2.45L291.27-2.45 291.27 11ZM297.97-3.4L297.97-3.4Q301.38-3.4 303.5-6.08 305.63-8.75 305.63-13.1L305.63-13.1Q305.63-16.1 304.55-18.25 303.47-20.4 301.7-21.55 299.93-22.7 297.77-22.7L297.77-22.7Q295.63-22.7 293.9-21.63 292.18-20.55 291.27-19.3L291.27-19.3 291.27-6.5Q292.57-5.15 294.27-4.28 295.97-3.4 297.97-3.4ZM320.97 0L316.47 0 316.47-26 320.97-26 320.97 0ZM318.72-30.45L318.72-30.45Q317.42-30.45 316.5-31.4 315.57-32.35 315.57-33.6L315.57-33.6Q315.57-35.05 316.42-35.9 317.27-36.75 318.72-36.75L318.72-36.75Q320.02-36.75 320.95-35.83 321.87-34.9 321.87-33.6L321.87-33.6Q321.87-32.2 321.02-31.33 320.17-30.45 318.72-30.45ZM338.07 0.6L338.07 0.6Q334.32 0.6 332.14-1.88 329.97-4.35 329.97-8.95L329.97-8.95 329.97-21.15 325.47-21.15 325.47-25.05 330.07-25.05 331.02-33.25 334.47-33.25 334.47-25.05 341.67-25.05 341.67-21.15 334.47-21.15 334.47-8.6Q334.47-5.7 335.69-4.55 336.92-3.4 338.62-3.4L338.62-3.4Q339.87-3.4 340.99-3.8 342.12-4.2 343.07-4.75L343.07-4.75 344.32-1.15Q343.32-0.55 341.62 0.03 339.92 0.6 338.07 0.6ZM358.77 0.6L358.77 0.6Q355.52 0.6 352.87-1.05 350.22-2.7 348.64-5.73 347.07-8.75 347.07-12.85L347.07-12.85Q347.07-16.75 348.64-19.85 350.22-22.95 352.99-24.78 355.77-26.6 359.37-26.6L359.37-26.6Q361.62-26.6 363.44-25.83 365.27-25.05 366.62-23.9L366.62-23.9 366.62-26 370.72-26 370.72-6.3Q370.72-4.4 371.64-3.83 372.57-3.25 373.67-3.25L373.67-3.25 372.72 0.25Q367.92 0.25 366.92-3.65L366.92-3.65Q365.77-2.05 363.79-0.73 361.82 0.6 358.77 0.6ZM359.77-3.4L359.77-3.4Q361.67-3.4 363.37-4.33 365.07-5.25 366.22-6.65L366.22-6.65 366.22-20.6Q364.87-21.55 363.24-22.13 361.62-22.7 359.82-22.7L359.82-22.7Q357.42-22.7 355.59-21.48 353.77-20.25 352.72-18.07 351.67-15.9 351.67-13L351.67-13Q351.67-10.2 352.72-8.03 353.77-5.85 355.62-4.63 357.47-3.4 359.77-3.4ZM387.56 0.6L387.56 0.6Q385.27 0.6 383.42-0.28 381.56-1.15 380.49-3.1 379.42-5.05 379.42-8.15L379.42-8.15 379.42-37 383.92-37 383.92-8.6Q383.92-5.9 385.04-4.6 386.17-3.3 388.17-3.3L388.17-3.3Q389.12-3.3 390.04-3.53 390.97-3.75 391.62-4.05L391.62-4.05 392.72-0.4Q391.81 0 390.49 0.3 389.17 0.6 387.56 0.6Z" fill="#ffffff" data-fill-palette-color="primary"></path></g></svg></g></svg></g><g transform="matrix(1,0,0,1,0,61.55240240514098)"><svg viewBox="0 0 232.20979199999996 23.14441686654775" height="23.14441686654775" width="232.20979199999996"><g transform="matrix(1,0,0,1,0,0)"><svg width="232.20979199999996" viewBox="4 -35.01 451.64 45.019999999999996" height="23.14441686654775" data-palette-color="#556970"><path d="M23.71 0L4 0 4-35.01 23.71-35.01 23.71-32.01 7.15-32.01 7.15-18.99 20.56-18.99 20.56-15.99 7.15-15.99 7.15-3 23.71-3 23.71 0ZM45.41-25L36.55 0 35.06 0 26.19-25 29.2-25 35.72-6.05 35.81-4.76 35.91-6.05 42.4-25 45.41-25ZM65.6-6.86L65.6-6.86Q65.6-5.35 65.02-4 64.45-2.66 63.45-1.66 62.45-0.66 61.1-0.09 59.76 0.49 58.25 0.49L58.25 0.49 56.25 0.49Q54.73 0.49 53.39-0.09 52.05-0.66 51.04-1.66 50.04-2.66 49.47-4 48.9-5.35 48.9-6.86L48.9-6.86 48.9-18.14Q48.9-19.65 49.47-21 50.04-22.34 51.04-23.34 52.05-24.34 53.39-24.91 54.73-25.49 56.25-25.49L56.25-25.49 58.25-25.49Q59.76-25.49 61.1-24.91 62.45-24.34 63.45-23.34 64.45-22.34 65.02-21 65.6-19.65 65.6-18.14L65.6-18.14 65.6-12.26 51.9-12.26 51.9-6.69Q51.9-5.79 52.24-4.99 52.58-4.2 53.17-3.61 53.75-3.03 54.55-2.69 55.34-2.34 56.25-2.34L56.25-2.34 58.25-2.34Q59.15-2.34 59.94-2.69 60.74-3.03 61.32-3.61 61.91-4.2 62.25-4.99 62.59-5.79 62.59-6.69L62.59-6.69 62.59-8.35 65.6-7.86 65.6-6.86ZM62.59-14.6L62.59-18.31Q62.59-19.21 62.25-20.01 61.91-20.8 61.32-21.39 60.74-21.97 59.94-22.31 59.15-22.66 58.25-22.66L58.25-22.66 56.25-22.66Q55.34-22.66 54.55-22.31 53.75-21.97 53.17-21.39 52.58-20.8 52.24-20.01 51.9-19.21 51.9-18.31L51.9-18.31 51.9-14.6 62.59-14.6ZM81.95-22.14L78.95-22.14Q78.04-22.14 77.25-21.8 76.46-21.46 75.87-20.87 75.29-20.29 74.94-19.49 74.6-18.7 74.6-17.8L74.6-17.8 74.6 0 71.6 0 71.6-25 72.6-25 74.24-22.46Q75.26-23.85 76.81-24.67 78.36-25.49 80.19-25.49L80.19-25.49 81.95-25.49 81.95-22.14ZM102.65-25L90 10.01 87.1 10.01 91.54-2.15 83.44-25 86.44-25 92.96-6.05 93.06-4.76 93.15-6.05 99.65-25 102.65-25ZM137.85-32.01L121.3-32.01 121.3-18.99 134.7-18.99 134.7-15.99 121.3-15.99 121.3 0 118.15 0 118.15-35.01 137.85-35.01 137.85-32.01ZM158.55-6.86L158.55-6.86Q158.55-5.35 157.98-4 157.4-2.66 156.4-1.66 155.4-0.66 154.06-0.09 152.72 0.49 151.2 0.49L151.2 0.49 149.2 0.49Q147.69 0.49 146.34-0.09 145-0.66 144-1.66 143-2.66 142.43-4 141.85-5.35 141.85-6.86L141.85-6.86 141.85-18.14Q141.85-19.65 142.43-21 143-22.34 144-23.34 145-24.34 146.34-24.91 147.69-25.49 149.2-25.49L149.2-25.49 151.2-25.49Q152.72-25.49 154.06-24.91 155.4-24.34 156.4-23.34 157.4-22.34 157.98-21 158.55-19.65 158.55-18.14L158.55-18.14 158.55-12.26 144.86-12.26 144.86-6.69Q144.86-5.79 145.2-4.99 145.54-4.2 146.13-3.61 146.71-3.03 147.5-2.69 148.3-2.34 149.2-2.34L149.2-2.34 151.2-2.34Q152.11-2.34 152.9-2.69 153.69-3.03 154.28-3.61 154.87-4.2 155.21-4.99 155.55-5.79 155.55-6.69L155.55-6.69 155.55-8.35 158.55-7.86 158.55-6.86ZM155.55-14.6L155.55-18.31Q155.55-19.21 155.21-20.01 154.87-20.8 154.28-21.39 153.69-21.97 152.9-22.31 152.11-22.66 151.2-22.66L151.2-22.66 149.2-22.66Q148.3-22.66 147.5-22.31 146.71-21.97 146.13-21.39 145.54-20.8 145.2-20.01 144.86-19.21 144.86-18.31L144.86-18.31 144.86-14.6 155.55-14.6ZM181.25-6.86L181.25-6.86Q181.25-5.35 180.68-4 180.11-2.66 179.11-1.66 178.11-0.66 176.76-0.09 175.42 0.49 173.91 0.49L173.91 0.49 171.9 0.49Q170.39 0.49 169.05-0.09 167.7-0.66 166.7-1.66 165.7-2.66 165.13-4 164.56-5.35 164.56-6.86L164.56-6.86 164.56-18.14Q164.56-19.65 165.13-21 165.7-22.34 166.7-23.34 167.7-24.34 169.05-24.91 170.39-25.49 171.9-25.49L171.9-25.49 173.91-25.49Q175.42-25.49 176.76-24.91 178.11-24.34 179.11-23.34 180.11-22.34 180.68-21 181.25-19.65 181.25-18.14L181.25-18.14 181.25-12.26 167.56-12.26 167.56-6.69Q167.56-5.79 167.9-4.99 168.24-4.2 168.83-3.61 169.41-3.03 170.21-2.69 171-2.34 171.9-2.34L171.9-2.34 173.91-2.34Q174.81-2.34 175.6-2.69 176.4-3.03 176.98-3.61 177.57-4.2 177.91-4.99 178.25-5.79 178.25-6.69L178.25-6.69 178.25-8.35 181.25-7.86 181.25-6.86ZM178.25-14.6L178.25-18.31Q178.25-19.21 177.91-20.01 177.57-20.8 176.98-21.39 176.4-21.97 175.6-22.31 174.81-22.66 173.91-22.66L173.91-22.66 171.9-22.66Q171-22.66 170.21-22.31 169.41-21.97 168.83-21.39 168.24-20.8 167.9-20.01 167.56-19.21 167.56-18.31L167.56-18.31 167.56-14.6 178.25-14.6ZM203.96 0L202.96 0 201.3-2.54Q200.27-1.15 198.73-0.33 197.19 0.49 195.36 0.49L195.36 0.49 194.61 0.49Q193.09 0.49 191.75-0.09 190.41-0.66 189.41-1.66 188.41-2.66 187.83-4 187.26-5.35 187.26-6.86L187.26-6.86 187.26-18.14Q187.26-19.65 187.83-21 188.41-22.34 189.41-23.34 190.41-24.34 191.75-24.91 193.09-25.49 194.61-25.49L194.61-25.49 195.36-25.49Q197.05-25.49 198.49-24.8 199.93-24.12 200.95-22.9L200.95-22.9 200.95-35.01 203.96-35.01 203.96 0ZM200.95-6.69L200.95-18.31Q200.95-19.21 200.61-20.01 200.27-20.8 199.68-21.39 199.1-21.97 198.31-22.31 197.51-22.66 196.61-22.66L196.61-22.66 194.61-22.66Q193.7-22.66 192.91-22.31 192.12-21.97 191.53-21.39 190.94-20.8 190.6-20.01 190.26-19.21 190.26-18.31L190.26-18.31 190.26-6.69Q190.26-5.79 190.6-4.99 190.94-4.2 191.53-3.61 192.12-3.03 192.91-2.69 193.7-2.34 194.61-2.34L194.61-2.34 196.61-2.34Q197.51-2.34 198.31-2.69 199.1-3.03 199.68-3.61 200.27-4.2 200.61-4.99 200.95-5.79 200.95-6.69L200.95-6.69ZM226.66-6.86L226.66-6.86Q226.66-5.35 226.09-4 225.51-2.66 224.51-1.66 223.51-0.66 222.17-0.09 220.82 0.49 219.31 0.49L219.31 0.49 217.31 0.49Q215.8 0.49 214.45-0.09 213.11-0.66 212.11-1.66 211.11-2.66 210.53-4 209.96-5.35 209.96-6.86L209.96-6.86 209.96-35.01 212.96-35.01 212.96-22.9Q213.99-24.12 215.43-24.8 216.87-25.49 218.55-25.49L218.55-25.49 219.31-25.49Q220.82-25.49 222.17-24.91 223.51-24.34 224.51-23.34 225.51-22.34 226.09-21 226.66-19.65 226.66-18.14L226.66-18.14 226.66-6.86ZM223.66-6.69L223.66-18.31Q223.66-19.21 223.31-20.01 222.97-20.8 222.39-21.39 221.8-21.97 221.01-22.31 220.21-22.66 219.31-22.66L219.31-22.66 217.31-22.66Q216.41-22.66 215.61-22.31 214.82-21.97 214.23-21.39 213.65-20.8 213.31-20.01 212.96-19.21 212.96-18.31L212.96-18.31 212.96-6.69Q212.96-5.79 213.31-4.99 213.65-4.2 214.23-3.61 214.82-3.03 215.61-2.69 216.41-2.34 217.31-2.34L217.31-2.34 219.31-2.34Q220.21-2.34 221.01-2.69 221.8-3.03 222.39-3.61 222.97-4.2 223.31-4.99 223.66-5.79 223.66-6.69L223.66-6.69ZM249.36 0L248.36 0 246.7-2.49Q245.68-1.15 244.14-0.33 242.6 0.49 240.77 0.49L240.77 0.49 240.01 0.49Q238.5 0.49 237.16-0.09 235.81-0.66 234.81-1.66 233.81-2.66 233.24-4 232.66-5.35 232.66-6.86L232.66-6.86 232.66-7.1Q232.66-8.62 233.24-9.96 233.81-11.3 234.81-12.3 235.81-13.31 237.16-13.88 238.5-14.45 240.01-14.45L240.01-14.45 246.36-14.45 246.36-18.31Q246.36-19.21 246.02-20.01 245.68-20.8 245.09-21.39 244.5-21.97 243.71-22.31 242.92-22.66 242.01-22.66L242.01-22.66 240.26-22.66Q239.35-22.66 238.56-22.31 237.77-21.97 237.18-21.39 236.59-20.8 236.25-20.01 235.91-19.21 235.91-18.31L235.91-18.31 235.91-17.41 232.91-17.9 232.91-18.14Q232.91-19.65 233.48-21 234.05-22.34 235.06-23.34 236.06-24.34 237.4-24.91 238.74-25.49 240.26-25.49L240.26-25.49 242.01-25.49Q243.53-25.49 244.87-24.91 246.21-24.34 247.21-23.34 248.21-22.34 248.79-21 249.36-19.65 249.36-18.14L249.36-18.14 249.36 0ZM246.36-6.69L246.36-12.11 240.01-12.11Q239.11-12.11 238.31-11.77 237.52-11.43 236.94-10.83 236.35-10.23 236.01-9.44 235.67-8.64 235.67-7.74L235.67-7.74 235.67-6.69Q235.67-5.79 236.01-4.99 236.35-4.2 236.94-3.61 237.52-3.03 238.31-2.69 239.11-2.34 240.01-2.34L240.01-2.34 242.01-2.34Q242.92-2.34 243.71-2.69 244.5-3.03 245.09-3.61 245.68-4.2 246.02-4.99 246.36-5.79 246.36-6.69L246.36-6.69ZM272.06-6.86L272.06-6.86Q272.06-5.35 271.49-4 270.92-2.66 269.92-1.66 268.92-0.66 267.57-0.09 266.23 0.49 264.72 0.49L264.72 0.49 262.71 0.49Q261.2 0.49 259.86-0.09 258.51-0.66 257.51-1.66 256.51-2.66 255.94-4 255.37-5.35 255.37-6.86L255.37-6.86 255.37-18.14Q255.37-19.65 255.94-21 256.51-22.34 257.51-23.34 258.51-24.34 259.86-24.91 261.2-25.49 262.71-25.49L262.71-25.49 264.72-25.49Q266.23-25.49 267.57-24.91 268.92-24.34 269.92-23.34 270.92-22.34 271.49-21 272.06-19.65 272.06-18.14L272.06-18.14 272.06-17.14 269.06-16.65 269.06-18.31Q269.06-19.21 268.72-20.01 268.38-20.8 267.79-21.39 267.21-21.97 266.41-22.31 265.62-22.66 264.72-22.66L264.72-22.66 262.71-22.66Q261.81-22.66 261.02-22.31 260.22-21.97 259.64-21.39 259.05-20.8 258.71-20.01 258.37-19.21 258.37-18.31L258.37-18.31 258.37-6.69Q258.37-5.79 258.71-4.99 259.05-4.2 259.64-3.61 260.22-3.03 261.02-2.69 261.81-2.34 262.71-2.34L262.71-2.34 264.72-2.34Q265.62-2.34 266.41-2.69 267.21-3.03 267.79-3.61 268.38-4.2 268.72-4.99 269.06-5.79 269.06-6.69L269.06-6.69 269.06-8.35 272.06-7.86 272.06-6.86ZM296.28 0L292.37 0 282.17-12.5 292.37-25 296.28-25 285.83-12.5 296.28 0ZM281.58 0L278.58 0 278.58-35.01 281.58-35.01 281.58 0ZM337.49 0L334.34 0 334.34-24 334.12-22.51 325.99 0 324.33 0 316.12-22.51 315.93-24 315.93 0 312.78 0 312.78-35.01 314.42-35.01 325.04-6.3 325.13-5 325.23-6.3 335.83-35.01 337.49-35.01 337.49 0ZM360.68 0L359.68 0 358.02-2.49Q356.99-1.15 355.45-0.33 353.92 0.49 352.08 0.49L352.08 0.49 351.33 0.49Q349.81 0.49 348.47-0.09 347.13-0.66 346.13-1.66 345.13-2.66 344.55-4 343.98-5.35 343.98-6.86L343.98-6.86 343.98-7.1Q343.98-8.62 344.55-9.96 345.13-11.3 346.13-12.3 347.13-13.31 348.47-13.88 349.81-14.45 351.33-14.45L351.33-14.45 357.67-14.45 357.67-18.31Q357.67-19.21 357.33-20.01 356.99-20.8 356.41-21.39 355.82-21.97 355.03-22.31 354.23-22.66 353.33-22.66L353.33-22.66 351.57-22.66Q350.67-22.66 349.87-22.31 349.08-21.97 348.5-21.39 347.91-20.8 347.57-20.01 347.23-19.21 347.23-18.31L347.23-18.31 347.23-17.41 344.22-17.9 344.22-18.14Q344.22-19.65 344.8-21 345.37-22.34 346.37-23.34 347.37-24.34 348.71-24.91 350.06-25.49 351.57-25.49L351.57-25.49 353.33-25.49Q354.84-25.49 356.19-24.91 357.53-24.34 358.53-23.34 359.53-22.34 360.1-21 360.68-19.65 360.68-18.14L360.68-18.14 360.68 0ZM357.67-6.69L357.67-12.11 351.33-12.11Q350.42-12.11 349.63-11.77 348.84-11.43 348.25-10.83 347.67-10.23 347.32-9.44 346.98-8.64 346.98-7.74L346.98-7.74 346.98-6.69Q346.98-5.79 347.32-4.99 347.67-4.2 348.25-3.61 348.84-3.03 349.63-2.69 350.42-2.34 351.33-2.34L351.33-2.34 353.33-2.34Q354.23-2.34 355.03-2.69 355.82-3.03 356.41-3.61 356.99-4.2 357.33-4.99 357.67-5.79 357.67-6.69L357.67-6.69ZM378.52 0L375.79 0Q374.42 0 373.21-0.51 372-1.03 371.11-1.93 370.22-2.83 369.7-4.03 369.17-5.22 369.17-6.59L369.17-6.59 369.17-22.14 364.68-22.14 364.68-25 369.17-25 369.17-31.01 372.17-31.49 372.17-25 378.52-25 378.52-22.14 372.17-22.14 372.17-6.45Q372.17-5.69 372.46-5.04 372.74-4.39 373.22-3.91 373.71-3.42 374.37-3.14 375.03-2.86 375.79-2.86L375.79-2.86 378.52-2.86 378.52 0ZM395.88 0L393.14 0Q391.78 0 390.57-0.51 389.36-1.03 388.47-1.93 387.58-2.83 387.05-4.03 386.53-5.22 386.53-6.59L386.53-6.59 386.53-22.14 382.04-22.14 382.04-25 386.53-25 386.53-31.01 389.53-31.49 389.53-25 395.88-25 395.88-22.14 389.53-22.14 389.53-6.45Q389.53-5.69 389.81-5.04 390.09-4.39 390.58-3.91 391.07-3.42 391.73-3.14 392.39-2.86 393.14-2.86L393.14-2.86 395.88-2.86 395.88 0ZM418.09-6.86L418.09-6.86Q418.09-5.35 417.52-4 416.94-2.66 415.94-1.66 414.94-0.66 413.6-0.09 412.26 0.49 410.74 0.49L410.74 0.49 408.74 0.49Q407.23 0.49 405.89-0.09 404.54-0.66 403.54-1.66 402.54-2.66 401.97-4 401.39-5.35 401.39-6.86L401.39-6.86 401.39-18.14Q401.39-19.65 401.97-21 402.54-22.34 403.54-23.34 404.54-24.34 405.89-24.91 407.23-25.49 408.74-25.49L408.74-25.49 410.74-25.49Q412.26-25.49 413.6-24.91 414.94-24.34 415.94-23.34 416.94-22.34 417.52-21 418.09-19.65 418.09-18.14L418.09-18.14 418.09-12.26 404.4-12.26 404.4-6.69Q404.4-5.79 404.74-4.99 405.08-4.2 405.67-3.61 406.25-3.03 407.04-2.69 407.84-2.34 408.74-2.34L408.74-2.34 410.74-2.34Q411.65-2.34 412.44-2.69 413.23-3.03 413.82-3.61 414.41-4.2 414.75-4.99 415.09-5.79 415.09-6.69L415.09-6.69 415.09-8.35 418.09-7.86 418.09-6.86ZM415.09-14.6L415.09-18.31Q415.09-19.21 414.75-20.01 414.41-20.8 413.82-21.39 413.23-21.97 412.44-22.31 411.65-22.66 410.74-22.66L410.74-22.66 408.74-22.66Q407.84-22.66 407.04-22.31 406.25-21.97 405.67-21.39 405.08-20.8 404.74-20.01 404.4-19.21 404.4-18.31L404.4-18.31 404.4-14.6 415.09-14.6ZM434.45-22.14L431.44-22.14Q430.54-22.14 429.75-21.8 428.95-21.46 428.37-20.87 427.78-20.29 427.44-19.49 427.1-18.7 427.1-17.8L427.1-17.8 427.1 0 424.1 0 424.1-25 425.1-25 426.73-22.46Q427.76-23.85 429.31-24.67 430.86-25.49 432.69-25.49L432.69-25.49 434.45-25.49 434.45-22.14ZM455.64-6.35L455.64-6.35Q455.64-4.83 455.03-3.58 454.42-2.32 453.37-1.42 452.32-0.51 450.94-0.01 449.56 0.49 448.04 0.49L448.04 0.49 446.04 0.49Q444.53 0.49 443.15-0.09 441.77-0.66 440.73-1.66 439.69-2.66 439.07-4 438.45-5.35 438.45-6.86L438.45-6.86 438.45-7.86 441.45-8.35 441.45-6.69Q441.45-5.79 441.83-4.99 442.21-4.2 442.84-3.61 443.48-3.03 444.31-2.69 445.14-2.34 446.04-2.34L446.04-2.34 448.04-2.34Q448.95-2.34 449.78-2.61 450.61-2.88 451.25-3.38 451.9-3.88 452.28-4.59 452.66-5.3 452.66-6.2L452.66-6.2Q452.66-7.54 452.07-8.4 451.49-9.25 450.52-9.83 449.56-10.4 448.32-10.78 447.09-11.16 445.8-11.54 444.5-11.91 443.27-12.4 442.04-12.89 441.07-13.68 440.11-14.48 439.52-15.67 438.94-16.87 438.94-18.65L438.94-18.65Q438.94-20.17 439.52-21.42 440.11-22.68 441.11-23.58 442.11-24.49 443.44-24.99 444.77-25.49 446.29-25.49L446.29-25.49 448.04-25.49Q449.56-25.49 450.9-24.91 452.24-24.34 453.24-23.34 454.24-22.34 454.82-21 455.39-19.65 455.39-18.14L455.39-18.14 455.39-18.04 452.39-17.55 452.39-18.31Q452.39-19.21 452.05-20.01 451.71-20.8 451.12-21.39 450.53-21.97 449.74-22.31 448.95-22.66 448.04-22.66L448.04-22.66 446.29-22.66Q445.38-22.66 444.59-22.39 443.8-22.12 443.21-21.62 442.62-21.12 442.28-20.41 441.94-19.7 441.94-18.8L441.94-18.8Q441.94-17.5 442.53-16.69 443.11-15.87 444.08-15.31 445.04-14.75 446.27-14.37 447.51-13.99 448.79-13.59 450.07-13.18 451.3-12.67 452.54-12.16 453.5-11.35 454.46-10.55 455.05-9.34 455.64-8.13 455.64-6.35Z" opacity="1" transform="matrix(1,0,0,1,0,0)" fill="#ffffff" class="slogan-text-1" data-fill-palette-color="secondary" id="text-1"></path></svg></g></svg></g></svg></g></svg></g><g><svg viewBox="0 0 117.05217475522139 117.05100423347382" height="117.05100423347382" width="117.05217475522139"><g><svg version="1.0" xmlns="http://www.w3.org/2000/svg" xmlns:xlink="http://www.w3.org/1999/xlink" x="0" y="0" viewBox="0 0 100 99.999" enable-background="new 0 0 100 99.999" xml:space="preserve" id="icon-0" width="117.05217475522139" height="117.05100423347382" class="icon-icon-0" data-fill-palette-color="accent"><polygon points="87.457,42.199 57.801,42.199 57.801,12.543 42.2,12.543 42.2,42.199 12.544,42.199 12.544,57.8 42.2,57.8 	42.2,87.456 57.801,87.456 57.801,57.8 87.457,57.8 " fill="#ffffff" data-fill-palette-color="accent"></polygon><path d="M50 99.999C22.429 99.999 0 77.57 0 50S22.429 0 50 0C77.57 0 100 22.43 100 50S77.571 99.999 50 99.999M50 5.4C25.406 5.4 5.4 25.407 5.4 50S25.406 94.6 50 94.6C74.592 94.6 94.599 74.593 94.599 50S74.592 5.4 50 5.4" fill="#ffffff" data-fill-palette-color="accent"></path></svg></g></svg></g></svg></g><defs></defs></svg><rect width="395.52" height="88.29590763519019" fill="none" stroke="none" visibility="hidden"></rect></g></svg></g></svg>